<svg xmlns="http://www.w3.org/2000/svg" viewBox="0 0 2483.42 864.73"><defs><style>.cls-1{fill:#fff;}</style></defs><g id="Camada_2" data-name="Camada 2"><g id="Camada_5" data-name="Camada 5"><path class="cls-1" d="M1025.05,39.4H975.76L998.51,0H0L499.25,864.73l24-41.5,24,41.45ZM499.25,815.33,42.79,24.7H955.72l-8.48,14.7H69.4L508.94,798.56ZM933,64.11,523.19,773.87,112.25,64.11Zm28.53,0h20.7l-435,751.27-9.75-16.84Z"/><path class="cls-1" d="M496.6,233.73l28.54,49.41,60.3,104.44L614,437l28.53-49.4L614,338.17l-31.77-55h120.6l28.52-49.41,15.28-26.47,28.54-49.41H452.8l28.52,49.41Zm192.94-26.47-15.28,26.47H553.66l-15.29-26.47Z"/><polygon class="cls-1" points="434.75 332.54 377.06 332.54 497.28 540.27 525.79 589.7 554.34 540.27 570.41 512.42 598.96 463 570.41 413.58 495.12 283.14 466.59 233.73 451.3 207.26 422.79 157.86 276.47 157.86 305 207.26 394.24 207.26 409.53 233.73 438.06 283.14 541.9 463 525.79 490.87 434.75 332.54"/><path class="cls-1" d="M1919.93,343.41V485.65H1991V521.3H1884.29V343.41Z"/><path class="cls-1" d="M2228.85,369.62Q2255,395.77,2255,432.41t-26.15,62.85q-26.16,26.1-62.79,26.1t-62.85-26.1q-26.1-26.1-26.1-62.85t26.1-62.79q26.1-26.16,62.85-26.16T2228.85,369.62Zm-100.48,25.1a53.3,53.3,0,1,0,91.1,37.69q0-22-15.73-37.69T2166.06,379A51.18,51.18,0,0,0,2128.37,394.72Z"/><path class="cls-1" d="M1749.74,343.41V450.12q0,29.46-20.92,50.32t-50.26,20.86q-29.47,0-50.32-20.86t-20.86-50.32V343.41H1643V450.12a35.54,35.54,0,0,0,71.07,0V343.41Z"/><path class="cls-1" d="M1252.39,361.78q-18.33-18.31-44-18.32h-62.24v177.9h35.65V467.94h.14V432.41h-.14V379h26.59a26.71,26.71,0,0,1,0,53.41h-1.95v35.53h1.95q25.73,0,44-18.26t18.32-44Q1270.71,380.1,1252.39,361.78Z"/><polygon class="cls-1" points="1443.48 428 1461.84 384.01 1447.35 351.74 1443.59 343.46 1439.73 351.85 1363.47 521.36 1370.98 521.36 1393.93 521.36 1395.48 521.36 1401.3 521.36 1429.64 459.11 1429.58 459.11 1443.48 428"/><polygon class="cls-1" points="1475.64 414.76 1457.42 458.93 1457.5 459.11 1457.34 459.11 1457.34 459.11 1457.4 459.17 1456.55 461.03 1442.68 494.65 1473.5 494.65 1474.05 495.97 1485.53 521.36 1491.6 521.36 1493.04 521.36 1515.99 521.36 1523.49 521.36 1475.64 414.76"/><path class="cls-1" d="M2000.43,663.8q26.16,26.15,26.16,62.79t-26.16,62.85q-26.15,26.1-62.79,26.1t-62.85-26.1q-26.1-26.1-26.09-62.85t26.09-62.79q26.1-26.16,62.85-26.15T2000.43,663.8ZM1900,688.91a53.3,53.3,0,1,0,91.1,37.68q0-22-15.72-37.68t-37.69-15.73A51.18,51.18,0,0,0,1900,688.91Z"/><path class="cls-1" d="M2457.26,663.8q26.16,26.15,26.16,62.79t-26.16,62.85q-26.16,26.1-62.79,26.1t-62.85-26.1q-26.1-26.1-26.1-62.85t26.1-62.79q26.1-26.16,62.85-26.15T2457.26,663.8Zm-100.48,25.11a53.3,53.3,0,1,0,91.1,37.68q0-22-15.72-37.68t-37.69-15.73A51.15,51.15,0,0,0,2356.78,688.91Z"/><path class="cls-1" d="M2153,739.72a75.81,75.81,0,0,1-17-8.71,64.12,64.12,0,0,1-16.17-15.73q-7.17-9.76-7.17-24.33a53.36,53.36,0,0,1,106.71,0h-35.53a17.77,17.77,0,0,0-35.54,0q0,9.49,7.67,14.4t11.65,6q1.88.67,10.2,3.09a73.51,73.51,0,0,1,17.55,8.06A62,62,0,0,1,2212,737.68q7.39,9.55,7.39,24.45a53.36,53.36,0,0,1-106.71,0h35.64a17.77,17.77,0,0,0,35.54,0q0-11.26-9-14.57t-12.2-4.52Z"/><path class="cls-1" d="M1722.54,656q-18.33-18.32-44-18.31h-62.24V815.54h35.65V762.13h.14V726.59h-.14V673.18h26.59a26.71,26.71,0,0,1,0,53.41h-2v35.54h2q25.71,0,44-18.27t18.31-44Q1740.85,674.29,1722.54,656Z"/><path class="cls-1" d="M1259.4,735.59a60,60,0,0,0,11.31-35.7q0-25.6-18.32-43.93t-44-18.31h-1.95v35.53h1.95a26.71,26.71,0,0,1,0,53.41h-26.6V673.18h.14V637.65h-35.79V815.54h35.65V750.43l45.47,65.11h43.48L1230.54,758A61.65,61.65,0,0,0,1259.4,735.59Z"/><polygon class="cls-1" points="1443.48 722.18 1461.84 678.2 1447.35 645.92 1443.59 637.65 1439.73 646.03 1363.47 815.54 1370.98 815.54 1393.93 815.54 1395.48 815.54 1401.3 815.54 1429.64 753.3 1429.58 753.3 1443.48 722.18"/><polygon class="cls-1" points="1475.64 708.95 1457.42 753.12 1457.5 753.3 1457.34 753.3 1457.34 753.3 1457.4 753.35 1456.55 755.21 1442.68 788.83 1473.5 788.83 1474.05 790.16 1485.53 815.54 1491.6 815.54 1493.04 815.54 1515.99 815.54 1523.49 815.54 1475.64 708.95"/><path class="cls-1" d="M1247.37,49.25V156q0,29.47-20.92,50.33t-50.26,20.85q-3.42,0-6.74-.33V191a45,45,0,0,0,6.74.55,34.45,34.45,0,0,0,25.1-10.43A34,34,0,0,0,1211.83,156V49.25Z"/><path class="cls-1" d="M1506.28,75.41q26.15,26.15,26.15,62.79T1506.28,201q-26.16,26.1-62.8,26.1T1380.63,201q-26.09-26.1-26.09-62.84t26.09-62.79q26.11-26.16,62.85-26.16T1506.28,75.41Zm-100.48,25.1a51.54,51.54,0,0,0-15.62,37.69,53.36,53.36,0,0,0,106.72,0q0-22-15.73-37.69t-37.69-15.73A51.15,51.15,0,0,0,1405.8,100.51Z"/><path class="cls-1" d="M1976.42,75.41q26.16,26.15,26.16,62.79T1976.42,201q-26.14,26.1-62.79,26.1T1850.78,201q-26.1-26.1-26.1-62.84t26.1-62.79q26.1-26.16,62.85-26.16T1976.42,75.41Zm-100.48,25.1a51.57,51.57,0,0,0-15.61,37.69,53.36,53.36,0,0,0,106.71,0q0-22-15.72-37.69t-37.69-15.73A51.17,51.17,0,0,0,1875.94,100.51Z"/><polygon class="cls-1" points="1678.56 133.73 1696.91 89.74 1682.42 57.47 1678.67 49.2 1674.81 57.58 1598.55 227.09 1606.05 227.09 1629.01 227.09 1630.55 227.09 1636.38 227.09 1664.71 164.84 1664.65 164.84 1678.56 133.73"/><polygon class="cls-1" points="1710.71 120.5 1692.49 164.66 1692.57 164.84 1692.42 164.84 1692.42 164.84 1692.47 164.9 1691.63 166.76 1677.76 200.38 1708.57 200.38 1709.13 201.71 1720.6 227.09 1726.67 227.09 1728.11 227.09 1751.06 227.09 1758.57 227.09 1710.71 120.5"/></g></g></svg>